<?xml version="1.0" encoding="UTF-8" standalone="no"?>
<!-- Created with Inkscape (http://www.inkscape.org/) -->

<svg
   width="82.71859mm"
   height="84.096519mm"
   viewBox="0 0 82.718592 84.096518"
   version="1.1"
   id="svg1"
   xml:space="preserve"
   xmlns="http://www.w3.org/2000/svg"
   xmlns:svg="http://www.w3.org/2000/svg"><defs
     id="defs1" /><g
     id="layer1"
     transform="translate(-54.948816,-62.045139)"><path
       style="fill:#eceff2;fill-opacity:1;stroke:#000000;stroke-width:0.2;stroke-dasharray:none;stroke-opacity:1"
       d="m 55.592411,145.06791 c -0.514778,-0.36056 -0.589673,-0.61685 -0.521893,-1.78593 l 0.07914,-1.36496 4.222043,-0.0731 c 5.030355,-0.0871 4.632259,0.28158 4.637447,-4.29531 l 0.0041,-3.57471 4.56682,-4.56123 4.56682,-4.56123 h 4.634724 c 6.286661,0 5.810801,0.46013 5.810801,-5.61873 v -4.79497 l 4.156422,-4.18586 4.156422,-4.18585 h 8.014415 c 10.258388,0 9.072738,1.18446 9.072738,-9.063668 v -8.005328 l 7.74071,-7.737381 c 9.14746,-9.143514 7.34803,-8.663215 12.6322,-3.371755 6.17427,6.182781 5.79007,6.563764 5.8835,-5.834263 0.0767,-10.178576 0.0995,-10.299482 1.65094,-8.748057 l 0.66765,0.667642 v 10.301464 c 0,9.430535 -0.0392,10.346738 -0.46302,10.836952 -0.81524,0.942824 -1.51285,0.95351 -2.55428,0.03912 l -0.94398,-0.828828 -0.0699,26.729732 -0.0699,26.72972 -0.7787,0.81275 c -1.30266,1.35959 -0.67958,1.33552 -34.609308,1.33709 l -31.948437,0.001 v 2.34024 c 0,3.09682 -7.330563,5.04123 -10.537452,2.79503 z m -0.02555,-46.608713 c 0.02218,-36.005313 -0.03672,-34.645555 1.546955,-35.712793 l 0.892216,-0.601265 h 27.811273 27.811275 l 4.36029,4.366303 4.36028,4.366302 -7.93351,7.936823 -7.93352,7.936822 -7.939153,0.0041 c -9.904984,0.0051 -8.717205,-1.163201 -8.809662,8.664857 l -0.07676,8.159534 -4.225044,4.21964 -4.225045,4.21963 -4.958611,0.13229 -4.958611,0.13229 -0.132291,4.95888 -0.132292,4.95888 -4.627373,4.63227 -4.627372,4.63227 H 58.65822 55.54653 Z"
       id="path51" /><path
       style="fill:#a3cbf0;fill-opacity:1;stroke:#000000;stroke-width:0.1;stroke-linejoin:miter;stroke-dasharray:none;stroke-opacity:1"
       d="m 56.864589,145.58803 c -1.498324,-0.48811 -1.707819,-0.84062 -1.627621,-2.73873 l 0.03873,-0.91666 h 3.682736 c 3.557823,0 4.478964,-0.15527 4.930187,-0.83104 0.09877,-0.14793 0.181274,-1.81008 0.183333,-3.69366 l 0.0037,-3.4247 4.461111,-4.43393 4.46111,-4.43393 4.750438,-0.11339 4.750437,-0.11339 0.56623,-0.65828 c 0.548367,-0.63751 0.566229,-0.80251 0.566229,-5.23068 v -4.57239 l 4.094446,-4.08209 4.094443,-4.08209 7.711342,-0.0708 c 6.94505,-0.0637 7.7781,-0.11455 8.38313,-0.51133 0.36949,-0.24231 0.77688,-0.71697 0.90533,-1.05481 0.13,-0.34192 0.23353,-3.94029 0.23353,-8.116599 V 89.0072 l 6.90556,-6.866874 c 3.79805,-3.776782 7.22289,-7.103557 7.61074,-7.392837 1.33324,-0.994386 1.61033,-0.835136 5.91948,3.40206 3.44623,3.388683 4.08691,3.917307 4.66609,3.85 0.5453,-0.06337 0.70618,-0.238665 0.85683,-0.933577 0.10201,-0.470556 0.27087,-4.724225 0.37525,-9.452599 0.10437,-4.728374 0.2656,-8.672873 0.35828,-8.765555 0.0927,-0.09268 0.50822,0.07338 0.92342,0.369026 l 0.7549,0.537537 -0.0686,10.463688 c -0.0649,9.893371 -0.094,10.491721 -0.53427,10.978017 -0.6279,0.693526 -1.10928,0.648364 -2.30252,-0.216014 l -1.00821,-0.730342 -0.0674,26.73809 c -0.0664,26.34364 -0.0746,26.74617 -0.55624,27.2863 -1.25728,1.40985 0.70198,1.33012 -34.527783,1.40511 l -32.327776,0.0688 v 1.57267 c 0,1.39801 -0.08125,1.66523 -0.731554,2.40588 -1.138495,1.29667 -2.901254,1.94712 -5.501781,2.03012 -1.21,0.0386 -2.529998,-0.0373 -2.933332,-0.16869 z"
       id="path52" /></g></svg>
